# xmcd
#
# Track frame offsets: 
#        187
#        22237
#        35197
#        50910
#        67140
#        83667
#        97660
#        115660
#        135807
#        152497
#        170557
#        185192
#
# Disc length: 2714 seconds
#
# Revision: 5
# Processed by: cddbd v1.4PL0 Copyright (c) Steve Scherf et al.
# Submitted via: ExactAudioCopy v0.90b4
#
DISCID=a10a980c
DTITLE=Alabama - Pass It On Down
DYEAR=1990
DGENRE=Country
TTITLE0=Pass It On Down
TTITLE1=Here We Are
TTITLE2=Down Home
TTITLE3=Forever's As Far As I'll Go
TTITLE4=Jukebox In My Mind
TTITLE5=Moonlight Lounge
TTITLE6=Goodbye (Kelly's Song)
TTITLE7=Fire On Fire
TTITLE8=Until It Happens To You
TTITLE9=Gulf Of Mexico
TTITLE10=Starting Tonight
TTITLE11=I Ain't Got No Business Doin' Business Today
EXTD=
EXTT0=
EXTT1=
EXTT2=
EXTT3=
EXTT4=
EXTT5=
EXTT6=
EXTT7=
EXTT8=
EXTT9=
EXTT10=
EXTT11=
PLAYORDER=
